<mxfile host="65bd71144e" pages="3">
    <diagram id="RxDyDp7E_9olwF9vVT94" name="architecture">
        <mxGraphModel dx="857" dy="519" grid="1" gridSize="10" guides="1" tooltips="1" connect="1" arrows="1" fold="1" page="1" pageScale="1" pageWidth="827" pageHeight="1169" math="0" shadow="0">
            <root>
                <mxCell id="0"/>
                <mxCell id="1" parent="0"/>
                <mxCell id="D1lKJ4flEsZFidLZuGgN-1" value="" style="rounded=0;whiteSpace=wrap;html=1;" parent="1" vertex="1">
                    <mxGeometry x="60" y="160" width="660" height="560" as="geometry"/>
                </mxCell>
                <mxCell id="2kjEBc9eWQu8f9wLqRiw-2" value="" style="rounded=1;whiteSpace=wrap;html=1;fontSize=12;" parent="1" vertex="1">
                    <mxGeometry x="180" y="206" width="460" height="94" as="geometry"/>
                </mxCell>
                <mxCell id="2kjEBc9eWQu8f9wLqRiw-7" value="IMU&lt;div&gt;node&lt;/div&gt;" style="rounded=1;whiteSpace=wrap;html=1;fontSize=12;flipH=1;" parent="1" vertex="1">
                    <mxGeometry x="468" y="240" width="60" height="43.25" as="geometry"/>
                </mxCell>
                <mxCell id="2kjEBc9eWQu8f9wLqRiw-8" value="Flight Controller&lt;div&gt;node&lt;/div&gt;" style="rounded=1;whiteSpace=wrap;html=1;fontSize=12;fillColor=#e1d5e7;strokeColor=none;" parent="1" vertex="1">
                    <mxGeometry x="559" y="347" width="80" height="63" as="geometry"/>
                </mxCell>
                <mxCell id="2kjEBc9eWQu8f9wLqRiw-10" value="" style="edgeStyle=none;html=1;exitX=0.5;exitY=0;exitDx=0;exitDy=0;" parent="1" source="2kjEBc9eWQu8f9wLqRiw-13" target="2kjEBc9eWQu8f9wLqRiw-14" edge="1">
                    <mxGeometry relative="1" as="geometry"/>
                </mxCell>
                <mxCell id="2kjEBc9eWQu8f9wLqRiw-11" value="" style="edgeStyle=none;html=1;" parent="1" source="2kjEBc9eWQu8f9wLqRiw-13" target="2kjEBc9eWQu8f9wLqRiw-14" edge="1">
                    <mxGeometry relative="1" as="geometry"/>
                </mxCell>
                <mxCell id="2kjEBc9eWQu8f9wLqRiw-12" value="aux reference" style="edgeLabel;html=1;align=center;verticalAlign=middle;resizable=0;points=[];" parent="2kjEBc9eWQu8f9wLqRiw-11" vertex="1" connectable="0">
                    <mxGeometry x="-0.1095" y="2" relative="1" as="geometry">
                        <mxPoint as="offset"/>
                    </mxGeometry>
                </mxCell>
                <mxCell id="2kjEBc9eWQu8f9wLqRiw-13" value="Governor&lt;br&gt;&lt;div&gt;lib&lt;/div&gt;" style="rounded=1;whiteSpace=wrap;html=1;fontSize=12;fillColor=#e1d5e7;strokeColor=#9673a6;" parent="1" vertex="1">
                    <mxGeometry x="568" y="530" width="66" height="40" as="geometry"/>
                </mxCell>
                <mxCell id="2kjEBc9eWQu8f9wLqRiw-14" value="MPC&lt;div&gt;lib&lt;/div&gt;" style="rounded=1;whiteSpace=wrap;html=1;fontSize=12;fillColor=#e1d5e7;strokeColor=#9673a6;" parent="1" vertex="1">
                    <mxGeometry x="567" y="450" width="65" height="40" as="geometry"/>
                </mxCell>
                <mxCell id="2kjEBc9eWQu8f9wLqRiw-15" value="" style="endArrow=classic;html=1;exitX=0.5;exitY=1;exitDx=0;exitDy=0;entryX=0.5;entryY=0;entryDx=0;entryDy=0;" parent="1" source="2kjEBc9eWQu8f9wLqRiw-42" target="2kjEBc9eWQu8f9wLqRiw-32" edge="1">
                    <mxGeometry width="50" height="50" relative="1" as="geometry">
                        <mxPoint x="184" y="509" as="sourcePoint"/>
                        <mxPoint x="384" y="499" as="targetPoint"/>
                    </mxGeometry>
                </mxCell>
                <mxCell id="2kjEBc9eWQu8f9wLqRiw-16" value="next view point&lt;div&gt;odom&lt;/div&gt;&lt;div&gt;map&lt;/div&gt;" style="edgeLabel;html=1;align=center;verticalAlign=middle;resizable=0;points=[];" parent="2kjEBc9eWQu8f9wLqRiw-15" vertex="1" connectable="0">
                    <mxGeometry x="-0.3797" y="1" relative="1" as="geometry">
                        <mxPoint x="-1" y="10" as="offset"/>
                    </mxGeometry>
                </mxCell>
                <mxCell id="2kjEBc9eWQu8f9wLqRiw-18" value="" style="endArrow=classic;html=1;exitX=1;exitY=0.5;exitDx=0;exitDy=0;entryX=0.5;entryY=1;entryDx=0;entryDy=0;" parent="1" source="2kjEBc9eWQu8f9wLqRiw-32" target="2kjEBc9eWQu8f9wLqRiw-13" edge="1">
                    <mxGeometry width="50" height="50" relative="1" as="geometry">
                        <mxPoint x="330" y="399" as="sourcePoint"/>
                        <mxPoint x="599" y="559" as="targetPoint"/>
                        <Array as="points">
                            <mxPoint x="599" y="600"/>
                        </Array>
                    </mxGeometry>
                </mxCell>
                <mxCell id="2kjEBc9eWQu8f9wLqRiw-19" value="Path" style="edgeLabel;html=1;align=center;verticalAlign=middle;resizable=0;points=[];" parent="2kjEBc9eWQu8f9wLqRiw-18" vertex="1" connectable="0">
                    <mxGeometry x="-0.1152" y="-1" relative="1" as="geometry">
                        <mxPoint x="-9" as="offset"/>
                    </mxGeometry>
                </mxCell>
                <mxCell id="2kjEBc9eWQu8f9wLqRiw-20" value="" style="endArrow=classic;html=1;exitX=0.5;exitY=0;exitDx=0;exitDy=0;entryX=0.5;entryY=1;entryDx=0;entryDy=0;" parent="1" source="2kjEBc9eWQu8f9wLqRiw-14" target="2kjEBc9eWQu8f9wLqRiw-8" edge="1">
                    <mxGeometry width="50" height="50" relative="1" as="geometry">
                        <mxPoint x="314" y="419" as="sourcePoint"/>
                        <mxPoint x="364" y="369" as="targetPoint"/>
                    </mxGeometry>
                </mxCell>
                <mxCell id="2kjEBc9eWQu8f9wLqRiw-21" value="Thrust&lt;div&gt;Angular Velocity&lt;/div&gt;" style="edgeLabel;html=1;align=center;verticalAlign=middle;resizable=0;points=[];" parent="2kjEBc9eWQu8f9wLqRiw-20" vertex="1" connectable="0">
                    <mxGeometry x="-0.0579" y="1" relative="1" as="geometry">
                        <mxPoint as="offset"/>
                    </mxGeometry>
                </mxCell>
                <mxCell id="2kjEBc9eWQu8f9wLqRiw-22" value="Motors" style="rounded=1;whiteSpace=wrap;html=1;fontSize=12;flipH=1;" parent="1" vertex="1">
                    <mxGeometry x="569" y="240" width="60" height="43.25" as="geometry"/>
                </mxCell>
                <mxCell id="2kjEBc9eWQu8f9wLqRiw-23" value="" style="endArrow=classic;html=1;exitX=0.5;exitY=0;exitDx=0;exitDy=0;entryX=0.5;entryY=1;entryDx=0;entryDy=0;" parent="1" source="2kjEBc9eWQu8f9wLqRiw-8" target="2kjEBc9eWQu8f9wLqRiw-22" edge="1">
                    <mxGeometry width="50" height="50" relative="1" as="geometry">
                        <mxPoint x="314" y="430" as="sourcePoint"/>
                        <mxPoint x="364" y="380" as="targetPoint"/>
                    </mxGeometry>
                </mxCell>
                <mxCell id="2kjEBc9eWQu8f9wLqRiw-24" value="Voltages" style="edgeLabel;html=1;align=center;verticalAlign=middle;resizable=0;points=[];" parent="2kjEBc9eWQu8f9wLqRiw-23" vertex="1" connectable="0">
                    <mxGeometry x="0.1733" y="-1" relative="1" as="geometry">
                        <mxPoint y="12" as="offset"/>
                    </mxGeometry>
                </mxCell>
                <mxCell id="2kjEBc9eWQu8f9wLqRiw-25" value="Depth Camera&lt;div&gt;node&lt;/div&gt;" style="rounded=1;whiteSpace=wrap;html=1;fontSize=12;flipH=1;" parent="1" vertex="1">
                    <mxGeometry x="199" y="240" width="60" height="43.25" as="geometry"/>
                </mxCell>
                <mxCell id="2kjEBc9eWQu8f9wLqRiw-26" value="Lidar&lt;div&gt;node&lt;/div&gt;" style="rounded=1;whiteSpace=wrap;html=1;fontSize=12;flipH=1;fillColor=#ffcc99;strokeColor=#36393d;" parent="1" vertex="1">
                    <mxGeometry x="322" y="240" width="75.5" height="43.25" as="geometry"/>
                </mxCell>
                <mxCell id="2kjEBc9eWQu8f9wLqRiw-29" value="" style="endArrow=classic;html=1;exitX=0.5;exitY=1;exitDx=0;exitDy=0;entryX=0.5;entryY=0;entryDx=0;entryDy=0;" parent="1" source="2kjEBc9eWQu8f9wLqRiw-25" target="2kjEBc9eWQu8f9wLqRiw-52" edge="1">
                    <mxGeometry width="50" height="50" relative="1" as="geometry">
                        <mxPoint x="340" y="440" as="sourcePoint"/>
                        <mxPoint x="462.0000000000002" y="354" as="targetPoint"/>
                    </mxGeometry>
                </mxCell>
                <mxCell id="2kjEBc9eWQu8f9wLqRiw-30" value="RGB" style="edgeLabel;html=1;align=center;verticalAlign=middle;resizable=0;points=[];" parent="2kjEBc9eWQu8f9wLqRiw-29" vertex="1" connectable="0">
                    <mxGeometry x="0.1581" y="1" relative="1" as="geometry">
                        <mxPoint y="1" as="offset"/>
                    </mxGeometry>
                </mxCell>
                <mxCell id="2kjEBc9eWQu8f9wLqRiw-37" value="Drone" style="rounded=1;whiteSpace=wrap;html=1;fontSize=12;strokeColor=none;" parent="1" vertex="1">
                    <mxGeometry x="378.07" y="207.75" width="90" height="30.5" as="geometry"/>
                </mxCell>
                <mxCell id="2kjEBc9eWQu8f9wLqRiw-38" value="" style="edgeStyle=none;html=1;" parent="1" source="2kjEBc9eWQu8f9wLqRiw-41" target="2kjEBc9eWQu8f9wLqRiw-42" edge="1">
                    <mxGeometry relative="1" as="geometry"/>
                </mxCell>
                <mxCell id="2kjEBc9eWQu8f9wLqRiw-39" value="" style="edgeStyle=none;html=1;" parent="1" source="2kjEBc9eWQu8f9wLqRiw-41" target="2kjEBc9eWQu8f9wLqRiw-42" edge="1">
                    <mxGeometry relative="1" as="geometry"/>
                </mxCell>
                <mxCell id="2kjEBc9eWQu8f9wLqRiw-40" value="next&lt;div&gt;view&lt;div&gt;point&lt;/div&gt;&lt;/div&gt;" style="edgeLabel;html=1;align=center;verticalAlign=middle;resizable=0;points=[];" parent="2kjEBc9eWQu8f9wLqRiw-39" vertex="1" connectable="0">
                    <mxGeometry x="-0.085" y="-3" relative="1" as="geometry">
                        <mxPoint x="-3" as="offset"/>
                    </mxGeometry>
                </mxCell>
                <mxCell id="2kjEBc9eWQu8f9wLqRiw-41" value="Exploration node&lt;div&gt;&lt;span style=&quot;background-color: transparent;&quot;&gt;Viewpoints&lt;/span&gt;&lt;/div&gt;" style="rounded=1;whiteSpace=wrap;html=1;fontSize=12;fillColor=#cce5ff;strokeColor=none;" parent="1" vertex="1">
                    <mxGeometry x="208" y="445" width="100" height="50" as="geometry"/>
                </mxCell>
                <mxCell id="2kjEBc9eWQu8f9wLqRiw-42" value="Controller Manager node&lt;div&gt;Logic (viewpoint, landing...)&lt;/div&gt;&lt;div&gt;Safety (odom loss...)&lt;/div&gt;" style="rounded=1;whiteSpace=wrap;html=1;fontSize=12;fillColor=#e1d5e7;strokeColor=#9673a6;" parent="1" vertex="1">
                    <mxGeometry x="371.5" y="440" width="152" height="60" as="geometry"/>
                </mxCell>
                <mxCell id="2kjEBc9eWQu8f9wLqRiw-44" value="" style="endArrow=classic;html=1;exitX=0.5;exitY=1;exitDx=0;exitDy=0;entryX=0.5;entryY=0;entryDx=0;entryDy=0;" parent="1" source="2kjEBc9eWQu8f9wLqRiw-57" target="2kjEBc9eWQu8f9wLqRiw-41" edge="1">
                    <mxGeometry width="50" height="50" relative="1" as="geometry">
                        <mxPoint x="320" y="433" as="sourcePoint"/>
                        <mxPoint x="550" y="459" as="targetPoint"/>
                    </mxGeometry>
                </mxCell>
                <mxCell id="2kjEBc9eWQu8f9wLqRiw-48" value="" style="endArrow=classic;html=1;exitX=0.5;exitY=1;exitDx=0;exitDy=0;entryX=0.5;entryY=0;entryDx=0;entryDy=0;" parent="1" source="2kjEBc9eWQu8f9wLqRiw-7" target="2kjEBc9eWQu8f9wLqRiw-57" edge="1">
                    <mxGeometry width="50" height="50" relative="1" as="geometry">
                        <mxPoint x="500" y="460" as="sourcePoint"/>
                        <mxPoint x="350" y="354" as="targetPoint"/>
                    </mxGeometry>
                </mxCell>
                <mxCell id="2kjEBc9eWQu8f9wLqRiw-49" value="angular velocity" style="edgeLabel;html=1;align=center;verticalAlign=middle;resizable=0;points=[];" parent="2kjEBc9eWQu8f9wLqRiw-48" vertex="1" connectable="0">
                    <mxGeometry x="0.0579" relative="1" as="geometry">
                        <mxPoint y="3" as="offset"/>
                    </mxGeometry>
                </mxCell>
                <mxCell id="2kjEBc9eWQu8f9wLqRiw-50" value="" style="endArrow=classic;html=1;exitX=1;exitY=0.5;exitDx=0;exitDy=0;entryX=0;entryY=0.5;entryDx=0;entryDy=0;" parent="1" source="2kjEBc9eWQu8f9wLqRiw-42" target="2kjEBc9eWQu8f9wLqRiw-14" edge="1">
                    <mxGeometry width="50" height="50" relative="1" as="geometry">
                        <mxPoint x="460" y="479" as="sourcePoint"/>
                        <mxPoint x="510" y="429" as="targetPoint"/>
                    </mxGeometry>
                </mxCell>
                <mxCell id="2kjEBc9eWQu8f9wLqRiw-51" value="odom&lt;div&gt;map&lt;/div&gt;" style="edgeLabel;html=1;align=center;verticalAlign=middle;resizable=0;points=[];" parent="2kjEBc9eWQu8f9wLqRiw-50" vertex="1" connectable="0">
                    <mxGeometry x="-0.0749" y="-2" relative="1" as="geometry">
                        <mxPoint x="-1" as="offset"/>
                    </mxGeometry>
                </mxCell>
                <mxCell id="2kjEBc9eWQu8f9wLqRiw-52" value="Dynamic object (person) detection" style="rounded=1;whiteSpace=wrap;html=1;fontSize=12;fillColor=#cdeb8b;strokeColor=none;" parent="1" vertex="1">
                    <mxGeometry x="110" y="347" width="100" height="63" as="geometry"/>
                </mxCell>
                <mxCell id="2kjEBc9eWQu8f9wLqRiw-53" value="" style="endArrow=classic;html=1;exitX=1;exitY=0.5;exitDx=0;exitDy=0;entryX=0;entryY=0.5;entryDx=0;entryDy=0;" parent="1" source="2kjEBc9eWQu8f9wLqRiw-52" target="2kjEBc9eWQu8f9wLqRiw-56" edge="1">
                    <mxGeometry width="50" height="50" relative="1" as="geometry">
                        <mxPoint x="357" y="567" as="sourcePoint"/>
                        <mxPoint x="250" y="349" as="targetPoint"/>
                    </mxGeometry>
                </mxCell>
                <mxCell id="2kjEBc9eWQu8f9wLqRiw-54" value="pos.&lt;div&gt;&amp;nbsp;of obs&lt;/div&gt;" style="edgeLabel;html=1;align=center;verticalAlign=middle;resizable=0;points=[];" parent="2kjEBc9eWQu8f9wLqRiw-53" vertex="1" connectable="0">
                    <mxGeometry x="-0.2886" y="-1" relative="1" as="geometry">
                        <mxPoint x="2" as="offset"/>
                    </mxGeometry>
                </mxCell>
                <mxCell id="2kjEBc9eWQu8f9wLqRiw-56" value="Map node&lt;div&gt;&lt;span style=&quot;background-color: transparent;&quot;&gt;global static layer (OctoMap or Voxel) + local dynamic layer (Voxel+SDF)&lt;/span&gt;&lt;/div&gt;" style="rounded=1;whiteSpace=wrap;html=1;fontSize=12;fillColor=#cdeb8b;strokeColor=none;" parent="1" vertex="1">
                    <mxGeometry x="260" y="345.5" width="180" height="64.5" as="geometry"/>
                </mxCell>
                <mxCell id="2kjEBc9eWQu8f9wLqRiw-57" value="Localization node&lt;br&gt;&lt;div&gt;p, p_dot, orien&lt;/div&gt;" style="rounded=1;whiteSpace=wrap;html=1;fontSize=12;fillColor=#cce5ff;strokeColor=none;" parent="1" vertex="1">
                    <mxGeometry x="453" y="345.5" width="92" height="64.5" as="geometry"/>
                </mxCell>
                <mxCell id="oyBbcemZL-KbOg_agXBi-1" value="" style="endArrow=classic;html=1;entryX=0.5;entryY=0;entryDx=0;entryDy=0;exitX=0.5;exitY=1;exitDx=0;exitDy=0;" parent="1" source="2kjEBc9eWQu8f9wLqRiw-25" target="2kjEBc9eWQu8f9wLqRiw-56" edge="1">
                    <mxGeometry width="50" height="50" relative="1" as="geometry">
                        <mxPoint x="190" y="313" as="sourcePoint"/>
                        <mxPoint x="170" y="370" as="targetPoint"/>
                    </mxGeometry>
                </mxCell>
                <mxCell id="oyBbcemZL-KbOg_agXBi-2" value="point cloud" style="edgeLabel;html=1;align=center;verticalAlign=middle;resizable=0;points=[];" parent="oyBbcemZL-KbOg_agXBi-1" vertex="1" connectable="0">
                    <mxGeometry x="0.1581" y="1" relative="1" as="geometry">
                        <mxPoint x="8" y="1" as="offset"/>
                    </mxGeometry>
                </mxCell>
                <mxCell id="oyBbcemZL-KbOg_agXBi-3" value="" style="endArrow=classic;html=1;exitX=0.5;exitY=1;exitDx=0;exitDy=0;entryX=0.5;entryY=0;entryDx=0;entryDy=0;" parent="1" source="2kjEBc9eWQu8f9wLqRiw-26" target="2kjEBc9eWQu8f9wLqRiw-56" edge="1">
                    <mxGeometry width="50" height="50" relative="1" as="geometry">
                        <mxPoint x="314.97" y="305" as="sourcePoint"/>
                        <mxPoint x="242.43499999999992" y="360" as="targetPoint"/>
                    </mxGeometry>
                </mxCell>
                <mxCell id="oyBbcemZL-KbOg_agXBi-9" value="" style="endArrow=classic;html=1;entryX=0.5;entryY=0;entryDx=0;entryDy=0;exitX=0.5;exitY=1;exitDx=0;exitDy=0;" parent="1" source="2kjEBc9eWQu8f9wLqRiw-26" target="2kjEBc9eWQu8f9wLqRiw-57" edge="1">
                    <mxGeometry width="50" height="50" relative="1" as="geometry">
                        <mxPoint x="350" y="310" as="sourcePoint"/>
                        <mxPoint x="403" y="370" as="targetPoint"/>
                    </mxGeometry>
                </mxCell>
                <mxCell id="oyBbcemZL-KbOg_agXBi-12" value="" style="endArrow=classic;html=1;entryX=0.5;entryY=0;entryDx=0;entryDy=0;exitX=0.5;exitY=1;exitDx=0;exitDy=0;" parent="1" source="2kjEBc9eWQu8f9wLqRiw-25" target="2kjEBc9eWQu8f9wLqRiw-57" edge="1">
                    <mxGeometry width="50" height="50" relative="1" as="geometry">
                        <mxPoint x="190" y="313" as="sourcePoint"/>
                        <mxPoint x="302" y="370" as="targetPoint"/>
                    </mxGeometry>
                </mxCell>
                <mxCell id="oyBbcemZL-KbOg_agXBi-16" value="" style="endArrow=classic;html=1;exitX=0.5;exitY=1;exitDx=0;exitDy=0;entryX=0.5;entryY=0;entryDx=0;entryDy=0;" parent="1" source="2kjEBc9eWQu8f9wLqRiw-56" target="2kjEBc9eWQu8f9wLqRiw-42" edge="1">
                    <mxGeometry width="50" height="50" relative="1" as="geometry">
                        <mxPoint x="403" y="409" as="sourcePoint"/>
                        <mxPoint x="309" y="479" as="targetPoint"/>
                    </mxGeometry>
                </mxCell>
                <mxCell id="oyBbcemZL-KbOg_agXBi-17" value="" style="endArrow=classic;html=1;exitX=0.5;exitY=1;exitDx=0;exitDy=0;entryX=0.5;entryY=0;entryDx=0;entryDy=0;" parent="1" source="2kjEBc9eWQu8f9wLqRiw-56" target="2kjEBc9eWQu8f9wLqRiw-41" edge="1">
                    <mxGeometry width="50" height="50" relative="1" as="geometry">
                        <mxPoint x="392.5350000000001" y="395" as="sourcePoint"/>
                        <mxPoint x="471" y="473" as="targetPoint"/>
                    </mxGeometry>
                </mxCell>
                <mxCell id="oyBbcemZL-KbOg_agXBi-18" value="" style="endArrow=classic;html=1;exitX=0.5;exitY=1;exitDx=0;exitDy=0;entryX=0.5;entryY=0;entryDx=0;entryDy=0;" parent="1" source="2kjEBc9eWQu8f9wLqRiw-57" target="2kjEBc9eWQu8f9wLqRiw-42" edge="1">
                    <mxGeometry width="50" height="50" relative="1" as="geometry">
                        <mxPoint x="312" y="422" as="sourcePoint"/>
                        <mxPoint x="481" y="483" as="targetPoint"/>
                    </mxGeometry>
                </mxCell>
                <mxCell id="Sba53_Fu6LJ50QESPM-D-1" value="" style="group" vertex="1" connectable="0" parent="1">
                    <mxGeometry x="364.25" y="560" width="168.5" height="81.81267515923571" as="geometry"/>
                </mxCell>
                <mxCell id="2kjEBc9eWQu8f9wLqRiw-32" value="" style="rounded=1;whiteSpace=wrap;html=1;fontSize=12;fillColor=#e1d5e7;strokeColor=#9673a6;" parent="Sba53_Fu6LJ50QESPM-D-1" vertex="1">
                    <mxGeometry width="168.5" height="81.81" as="geometry"/>
                </mxCell>
                <mxCell id="2kjEBc9eWQu8f9wLqRiw-33" value="Global planner" style="rounded=1;whiteSpace=wrap;html=1;fontSize=12;" parent="Sba53_Fu6LJ50QESPM-D-1" vertex="1">
                    <mxGeometry x="9.823333333333323" y="9.999299363057276" width="67.4" height="42.29299363057325" as="geometry"/>
                </mxCell>
                <mxCell id="2kjEBc9eWQu8f9wLqRiw-34" value="Local planner" style="rounded=1;whiteSpace=wrap;html=1;fontSize=12;" parent="Sba53_Fu6LJ50QESPM-D-1" vertex="1">
                    <mxGeometry x="92.74666666666667" y="9.999299363057276" width="67.4" height="42.29299363057325" as="geometry"/>
                </mxCell>
                <mxCell id="2kjEBc9eWQu8f9wLqRiw-35" value="Path Planner lib" style="rounded=1;whiteSpace=wrap;html=1;fontSize=12;strokeColor=none;fillColor=none;" parent="Sba53_Fu6LJ50QESPM-D-1" vertex="1">
                    <mxGeometry x="35.69999999999999" y="49.564267515923575" width="101.1" height="32.248407643312106" as="geometry"/>
                </mxCell>
                <mxCell id="2kjEBc9eWQu8f9wLqRiw-36" value="" style="endArrow=classic;html=1;exitX=1;exitY=0.5;exitDx=0;exitDy=0;entryX=0;entryY=0.5;entryDx=0;entryDy=0;" parent="Sba53_Fu6LJ50QESPM-D-1" source="2kjEBc9eWQu8f9wLqRiw-33" target="2kjEBc9eWQu8f9wLqRiw-34" edge="1">
                    <mxGeometry width="50" height="50" relative="1" as="geometry">
                        <mxPoint x="-13.21666666666664" y="-45.94904458598728" as="sourcePoint"/>
                        <mxPoint x="42.94999999999999" y="-98.81528662420385" as="targetPoint"/>
                    </mxGeometry>
                </mxCell>
            </root>
        </mxGraphModel>
    </diagram>
    <diagram id="bTce28yDaGuGycFOFQcF" name="simulation">
        <mxGraphModel dx="1243" dy="753" grid="1" gridSize="10" guides="1" tooltips="1" connect="1" arrows="1" fold="1" page="1" pageScale="1" pageWidth="827" pageHeight="1169" math="0" shadow="0">
            <root>
                <mxCell id="0"/>
                <mxCell id="1" parent="0"/>
                <mxCell id="vKj7g5qV0LtWivRjmtj6-1" value="" style="rounded=0;whiteSpace=wrap;html=1;" parent="1" vertex="1">
                    <mxGeometry x="520" y="203.5" width="910" height="526.5" as="geometry"/>
                </mxCell>
                <mxCell id="qmgRHSxq8p3-rUCt2yik-1" value="j" style="group;fontStyle=2" parent="1" vertex="1" connectable="0">
                    <mxGeometry x="789" y="560" width="281" height="180" as="geometry"/>
                </mxCell>
                <mxCell id="qmgRHSxq8p3-rUCt2yik-2" value="" style="rounded=0;whiteSpace=wrap;html=1;fontSize=12;fillColor=#fff2cc;strokeColor=#d6b656;" parent="qmgRHSxq8p3-rUCt2yik-1" vertex="1">
                    <mxGeometry y="1" width="237.77" height="139" as="geometry"/>
                </mxCell>
                <mxCell id="qmgRHSxq8p3-rUCt2yik-3" value="RGB-D camera" style="rounded=1;whiteSpace=wrap;html=1;fontSize=12;" parent="qmgRHSxq8p3-rUCt2yik-1" vertex="1">
                    <mxGeometry x="120" y="20" width="96.15" height="60" as="geometry"/>
                </mxCell>
                <mxCell id="qmgRHSxq8p3-rUCt2yik-4" value="&lt;font style=&quot;font-size: 16px;&quot;&gt;Gazebo&lt;/font&gt;&lt;div&gt;&lt;font style=&quot;font-size: 16px;&quot;&gt;(Harmonic)&lt;/font&gt;&lt;/div&gt;" style="rounded=0;whiteSpace=wrap;html=1;fontSize=12;opacity=0;" parent="qmgRHSxq8p3-rUCt2yik-1" vertex="1">
                    <mxGeometry x="5.403846153846153" y="88" width="232.3653846153846" height="40" as="geometry"/>
                </mxCell>
                <mxCell id="qmgRHSxq8p3-rUCt2yik-5" value="motors" style="rounded=1;whiteSpace=wrap;html=1;fontSize=12;" parent="qmgRHSxq8p3-rUCt2yik-1" vertex="1">
                    <mxGeometry x="23.776923076923076" y="20" width="86.46153846153845" height="60" as="geometry"/>
                </mxCell>
                <mxCell id="qmgRHSxq8p3-rUCt2yik-6" value="" style="rounded=0;whiteSpace=wrap;html=1;fontSize=12;fillColor=#e1d5e7;strokeColor=#9673a6;" parent="1" vertex="1">
                    <mxGeometry x="960" y="280" width="430" height="249" as="geometry"/>
                </mxCell>
                <mxCell id="qmgRHSxq8p3-rUCt2yik-7" value="" style="rounded=0;whiteSpace=wrap;html=1;fontSize=12;fillColor=#d5e8d4;strokeColor=#82b366;" parent="1" vertex="1">
                    <mxGeometry x="560" y="339.5" width="260" height="180" as="geometry"/>
                </mxCell>
                <mxCell id="qmgRHSxq8p3-rUCt2yik-8" value="IMU&lt;div&gt;(uORB topic)&lt;/div&gt;" style="rounded=1;whiteSpace=wrap;html=1;fontSize=12;" parent="1" vertex="1">
                    <mxGeometry x="600" y="369.5" width="90" height="70" as="geometry"/>
                </mxCell>
                <mxCell id="qmgRHSxq8p3-rUCt2yik-9" value="uXRCE-DDS&lt;div&gt;client&lt;/div&gt;" style="rounded=1;whiteSpace=wrap;html=1;fontSize=12;" parent="1" vertex="1">
                    <mxGeometry x="730" y="369.5" width="70" height="70" as="geometry"/>
                </mxCell>
                <mxCell id="qmgRHSxq8p3-rUCt2yik-10" value="uXRCE-DDS&lt;div&gt;agent&lt;/div&gt;" style="rounded=1;whiteSpace=wrap;html=1;fontSize=12;" parent="1" vertex="1">
                    <mxGeometry x="850.5" y="374.5" width="85" height="60" as="geometry"/>
                </mxCell>
                <mxCell id="qmgRHSxq8p3-rUCt2yik-11" value="&lt;div&gt;ROS2 topic publisher&lt;/div&gt;" style="rounded=1;whiteSpace=wrap;html=1;fontSize=12;arcSize=25;" parent="1" vertex="1">
                    <mxGeometry x="1035" y="289.5" width="170" height="40" as="geometry"/>
                </mxCell>
                <mxCell id="qmgRHSxq8p3-rUCt2yik-12" value="&lt;font style=&quot;font-size: 18px;&quot;&gt;PX4&lt;/font&gt;" style="rounded=0;whiteSpace=wrap;html=1;fontSize=12;opacity=0;" parent="1" vertex="1">
                    <mxGeometry x="570" y="469.5" width="60" height="40" as="geometry"/>
                </mxCell>
                <mxCell id="qmgRHSxq8p3-rUCt2yik-13" value="&lt;font style=&quot;font-size: 16px;&quot;&gt;Navigation System&lt;/font&gt;&lt;div&gt;&lt;font style=&quot;font-size: 16px;&quot;&gt;+&lt;/font&gt;&lt;/div&gt;&lt;div&gt;&lt;font style=&quot;font-size: 16px;&quot;&gt;ROS2 Humble&lt;/font&gt;&lt;/div&gt;" style="rounded=0;whiteSpace=wrap;html=1;fontSize=12;opacity=0;" parent="1" vertex="1">
                    <mxGeometry x="964" y="469.5" width="190" height="40" as="geometry"/>
                </mxCell>
                <mxCell id="qmgRHSxq8p3-rUCt2yik-14" value="" style="endArrow=classic;startArrow=classic;html=1;exitX=1;exitY=0.5;exitDx=0;exitDy=0;entryX=0;entryY=0.5;entryDx=0;entryDy=0;" parent="1" source="qmgRHSxq8p3-rUCt2yik-9" target="qmgRHSxq8p3-rUCt2yik-10" edge="1">
                    <mxGeometry width="50" height="50" relative="1" as="geometry">
                        <mxPoint x="910" y="359.5" as="sourcePoint"/>
                        <mxPoint x="960" y="309.5" as="targetPoint"/>
                    </mxGeometry>
                </mxCell>
                <mxCell id="qmgRHSxq8p3-rUCt2yik-15" value="&lt;span style=&quot;background-color: transparent;&quot;&gt;ROS2 topic subscriber&lt;/span&gt;" style="rounded=1;whiteSpace=wrap;html=1;fontSize=12;arcSize=25;" parent="1" vertex="1">
                    <mxGeometry x="1205" y="463.5" width="170" height="40" as="geometry"/>
                </mxCell>
                <mxCell id="qmgRHSxq8p3-rUCt2yik-16" value="&lt;div&gt;ROS2 topic publisher&lt;/div&gt;" style="rounded=1;whiteSpace=wrap;html=1;fontSize=12;arcSize=25;" parent="1" vertex="1">
                    <mxGeometry x="1035" y="344.5" width="170" height="40" as="geometry"/>
                </mxCell>
                <mxCell id="qmgRHSxq8p3-rUCt2yik-17" value="Thurst Command" style="rounded=1;whiteSpace=wrap;html=1;fontSize=12;arcSize=25;" parent="1" vertex="1">
                    <mxGeometry x="1240" y="289.5" width="135" height="40" as="geometry"/>
                </mxCell>
                <mxCell id="qmgRHSxq8p3-rUCt2yik-18" value="Orientation Command" style="rounded=1;whiteSpace=wrap;html=1;fontSize=12;arcSize=25;" parent="1" vertex="1">
                    <mxGeometry x="1240" y="344.5" width="135" height="40" as="geometry"/>
                </mxCell>
                <mxCell id="qmgRHSxq8p3-rUCt2yik-19" value="low-level controller" style="rounded=1;whiteSpace=wrap;html=1;fontSize=12;arcSize=25;" parent="1" vertex="1">
                    <mxGeometry x="640" y="463.5" width="135" height="40" as="geometry"/>
                </mxCell>
                <mxCell id="qmgRHSxq8p3-rUCt2yik-20" value="" style="endArrow=classic;html=1;entryX=1;entryY=0.5;entryDx=0;entryDy=0;exitX=0;exitY=0.5;exitDx=0;exitDy=0;" parent="1" source="qmgRHSxq8p3-rUCt2yik-18" target="qmgRHSxq8p3-rUCt2yik-16" edge="1">
                    <mxGeometry width="50" height="50" relative="1" as="geometry">
                        <mxPoint x="1020" y="479.5" as="sourcePoint"/>
                        <mxPoint x="1070" y="429.5" as="targetPoint"/>
                    </mxGeometry>
                </mxCell>
                <mxCell id="qmgRHSxq8p3-rUCt2yik-21" value="" style="endArrow=classic;html=1;entryX=1;entryY=0.5;entryDx=0;entryDy=0;exitX=0;exitY=0.5;exitDx=0;exitDy=0;" parent="1" source="qmgRHSxq8p3-rUCt2yik-17" target="qmgRHSxq8p3-rUCt2yik-11" edge="1">
                    <mxGeometry width="50" height="50" relative="1" as="geometry">
                        <mxPoint x="1250" y="432.5" as="sourcePoint"/>
                        <mxPoint x="1215" y="432.5" as="targetPoint"/>
                    </mxGeometry>
                </mxCell>
                <mxCell id="qmgRHSxq8p3-rUCt2yik-22" value="" style="endArrow=classic;html=1;entryX=0;entryY=0.5;entryDx=0;entryDy=0;" parent="1" source="qmgRHSxq8p3-rUCt2yik-8" target="qmgRHSxq8p3-rUCt2yik-9" edge="1">
                    <mxGeometry width="50" height="50" relative="1" as="geometry">
                        <mxPoint x="950" y="469.5" as="sourcePoint"/>
                        <mxPoint x="1000" y="419.5" as="targetPoint"/>
                    </mxGeometry>
                </mxCell>
                <mxCell id="qmgRHSxq8p3-rUCt2yik-23" value="&lt;span style=&quot;background-color: transparent;&quot;&gt;ROS2 topic subscriber&lt;/span&gt;" style="rounded=1;whiteSpace=wrap;html=1;fontSize=12;arcSize=25;" parent="1" vertex="1">
                    <mxGeometry x="1035" y="398.5" width="170" height="40" as="geometry"/>
                </mxCell>
                <mxCell id="qmgRHSxq8p3-rUCt2yik-24" value="" style="endArrow=classic;html=1;entryX=1;entryY=0.25;entryDx=0;entryDy=0;exitX=0;exitY=0.5;exitDx=0;exitDy=0;" parent="1" source="qmgRHSxq8p3-rUCt2yik-11" target="qmgRHSxq8p3-rUCt2yik-10" edge="1">
                    <mxGeometry width="50" height="50" relative="1" as="geometry">
                        <mxPoint x="950" y="469.5" as="sourcePoint"/>
                        <mxPoint x="1000" y="419.5" as="targetPoint"/>
                    </mxGeometry>
                </mxCell>
                <mxCell id="qmgRHSxq8p3-rUCt2yik-25" value="" style="endArrow=classic;html=1;entryX=1;entryY=0.5;entryDx=0;entryDy=0;exitX=0;exitY=0.5;exitDx=0;exitDy=0;" parent="1" source="qmgRHSxq8p3-rUCt2yik-16" target="qmgRHSxq8p3-rUCt2yik-10" edge="1">
                    <mxGeometry width="50" height="50" relative="1" as="geometry">
                        <mxPoint x="1045" y="309.5" as="sourcePoint"/>
                        <mxPoint x="953" y="414.5" as="targetPoint"/>
                    </mxGeometry>
                </mxCell>
                <mxCell id="qmgRHSxq8p3-rUCt2yik-26" value="" style="endArrow=classic;html=1;entryX=0;entryY=0.5;entryDx=0;entryDy=0;exitX=1;exitY=0.75;exitDx=0;exitDy=0;" parent="1" source="qmgRHSxq8p3-rUCt2yik-10" target="qmgRHSxq8p3-rUCt2yik-23" edge="1">
                    <mxGeometry width="50" height="50" relative="1" as="geometry">
                        <mxPoint x="1055" y="319.5" as="sourcePoint"/>
                        <mxPoint x="963" y="424.5" as="targetPoint"/>
                    </mxGeometry>
                </mxCell>
                <mxCell id="qmgRHSxq8p3-rUCt2yik-27" value="" style="endArrow=classic;html=1;entryX=0.5;entryY=0;entryDx=0;entryDy=0;exitX=0.5;exitY=1;exitDx=0;exitDy=0;" parent="1" source="qmgRHSxq8p3-rUCt2yik-9" target="qmgRHSxq8p3-rUCt2yik-19" edge="1">
                    <mxGeometry width="50" height="50" relative="1" as="geometry">
                        <mxPoint x="950" y="469.5" as="sourcePoint"/>
                        <mxPoint x="1000" y="419.5" as="targetPoint"/>
                    </mxGeometry>
                </mxCell>
                <mxCell id="qmgRHSxq8p3-rUCt2yik-28" value="" style="endArrow=classic;html=1;exitX=0.5;exitY=1;exitDx=0;exitDy=0;entryX=0;entryY=0.5;entryDx=0;entryDy=0;" parent="1" source="qmgRHSxq8p3-rUCt2yik-19" target="qmgRHSxq8p3-rUCt2yik-5" edge="1">
                    <mxGeometry width="50" height="50" relative="1" as="geometry">
                        <mxPoint x="950" y="469.5" as="sourcePoint"/>
                        <mxPoint x="740" y="639.5" as="targetPoint"/>
                    </mxGeometry>
                </mxCell>
                <mxCell id="qmgRHSxq8p3-rUCt2yik-29" value="" style="endArrow=classic;html=1;exitX=1;exitY=0.5;exitDx=0;exitDy=0;entryX=0;entryY=0.5;entryDx=0;entryDy=0;" parent="1" source="qmgRHSxq8p3-rUCt2yik-3" target="qmgRHSxq8p3-rUCt2yik-15" edge="1">
                    <mxGeometry width="50" height="50" relative="1" as="geometry">
                        <mxPoint x="950" y="469.5" as="sourcePoint"/>
                        <mxPoint x="1000" y="419.5" as="targetPoint"/>
                    </mxGeometry>
                </mxCell>
            </root>
        </mxGraphModel>
    </diagram>
    <diagram id="s0zww9YA-1pB_BOCB6qn" name="Naming rules">
        <mxGraphModel dx="646" dy="430" grid="1" gridSize="10" guides="1" tooltips="1" connect="1" arrows="1" fold="1" page="1" pageScale="1" pageWidth="827" pageHeight="1169" math="0" shadow="0">
            <root>
                <mxCell id="0"/>
                <mxCell id="1" parent="0"/>
                <UserObject label="Naming rules&#xa;&#xa;&#xa;Item                Naming Style              Example              Notes&#xa;Function names      camelCase                 getOdom()            Starts with verb&#xa;Variable names      snake_case                variable_name        Lowercase with underscores&#xa;Member variables    snake_case + trailing_    member_variable_     Trailing underscore marks members&#xa;File names          snake_case                rrt_star.cpp         Lowercase with underscores&#xa;Class/Struct names  PascalCase                ImageProcessor       Each word capitalized no underscores&#xa;name_space names    snake_case                fast_planner         Lowercase with underscores" link="Naming rules&#xa;&#xa;&#xa;Item                Naming Style               Example              Notes&#xa;Function names        camelCase                   getOdom()            Starts with a verb then camelCase&#xa;Variable names        snake_case                   variable_name        Lowercase with underscores&#xa;Member variables    snake_case + trailing _       member_variable_     Trailing underscore marks members&#xa;File names            snake_case                   rrt_star.cpp         Lowercase with underscores&#xa;Class/Struct names    PascalCase                   ImageProcessor        Each word capitalized no underscores&#xa;name_space names    snake_case                   fast_planner         Lowercase with underscores" id="Ofmkg4F3qvc2oEOee1Ha-1">
                    <mxCell style="text;whiteSpace=wrap;fontFamily=Courier New;" parent="1" vertex="1">
                        <mxGeometry x="20" y="120" width="780" height="200" as="geometry"/>
                    </mxCell>
                </UserObject>
            </root>
        </mxGraphModel>
    </diagram>
</mxfile>